Coordinates
nRows=128
nColumns=2
inDegrees=yes
endheader
time	ankle_angle_r	
2.375	 -5.172729	
2.4375	 -5.178724	
2.5	 -5.264282	
2.5625	 -5.200886	
2.625	 -5.215963	
2.6875	 -5.218506	
2.75	 -5.160377	
2.8125	 -5.227770	
2.875	 -5.257743	
2.9375	 -5.233765	
3	 -5.306426	
3.0625	 -5.279541	
3.125	 -5.302793	
3.1875	 -5.314237	
3.25	 -5.233765	
3.3125	 -5.259741	
3.375	 -5.244300	
3.4375	 -5.213056	
3.5	 -5.294800	
3.5625	 -5.289532	
3.625	 -5.279541	
3.6875	 -5.306062	
3.75	 -5.231585	
3.8125	 -5.230495	
3.875	 -5.194164	
3.9375	 -5.233765	
4	 -5.238124	
4.0625	 -5.255744	
4.125	 -5.171276	
4.1875	 -5.195073	
4.25	 -5.165463	
4.3125	 -5.157471	
4.375	 -5.157471	
4.4375	 -5.149660	
4.5	 -5.180722	
4.5625	 -5.187988	
4.625	 -5.135309	
4.6875	 -5.181267	
4.75	 -5.242484	
4.8125	 -5.105337	
4.875	 -5.218506	
4.9375	 -5.243029	
5	 -5.184355	
5.0625	 -5.249023	
5.125	 -5.178179	
5.1875	 -5.228497	
5.25	 -5.264282	
5.3125	 -5.111694	
5.375	 -5.177453	
5.4375	 -5.172729	
5.5	 -5.187988	
5.5625	 -5.249023	
5.625	 -5.253020	
5.6875	 -5.252838	
5.75	 -5.260649	
5.8125	 -5.191440	
5.875	 -5.114964	
5.9375	 -5.206335	
6	 -5.187988	
6.0625	 -5.147662	
6.125	 -5.218506	
6.1875	 -5.236126	
6.25	 -5.244664	
6.3125	 -5.142212	
6.375	 -5.186172	
6.4375	 -5.232130	
6.5	 -5.158924	
6.5625	 -5.203247	
6.625	 -5.232675	
6.6875	 -5.097344	
6.75	 -5.201794	
6.8125	 -5.217961	
6.875	 -5.112421	
6.9375	 -5.157289	
7	 -5.218506	
7.0625	 -5.157652	
7.125	 -5.218506	
7.1875	 -5.234855	
7.25	 -5.294800	
7.3125	 -5.294800	
7.375	 -5.247933	
7.4375	 -5.233765	
7.5	 -5.262829	
7.5625	 -5.249023	
7.625	 -5.281358	
7.6875	 -5.264282	
7.75	 -5.264282	
7.8125	 -5.307697	
7.875	 -5.266825	
7.9375	 -5.249023	
8	 -5.276635	
8.0625	 -5.276453	
8.125	 -5.249023	
8.1875	 -5.306607	
8.25	 -5.264282	
8.3125	 -5.290985	
8.375	 -5.283537	
8.4375	 -5.226862	
8.5	 -5.222866	
8.5625	 -5.244482	
8.625	 -5.128043	
8.6875	 -5.269732	
8.75	 -5.162557	
8.8125	 -5.136944	
8.875	 -5.264282	
8.9375	 -5.146208	
9	 -5.166917	
9.0625	 -5.197253	
9.125	 -5.166553	
9.1875	 -5.209605	
9.25	 -5.137852	
9.3125	 -5.179451	
9.375	 -5.218506	
9.4375	 -5.233765	
9.5	 -5.118960	
9.5625	 -5.249023	
9.625	 -5.157471	
9.6875	 -5.149660	
9.75	 -5.233038	
9.8125	 -5.134037	
9.875	 -5.150568	
9.9375	 -5.172729	
10	 -5.068098	
10.0625	 -5.187988	
10.125	 -5.148388	
10.1875	 -5.197253	
10.25	 -5.249023	
10.3125	 -5.233765	
